<?xml version="1.0" encoding="utf-8"?>
<!-- Generator: Adobe Illustrator 13.0.0, SVG Export Plug-In . SVG Version: 6.00 Build 14948)  -->
<!DOCTYPE svg PUBLIC "-//W3C//DTD SVG 1.1//EN" "http://www.w3.org/Graphics/SVG/1.1/DTD/svg11.dtd">
<svg version="1.1"
	 id="svg2" xmlns:dc="http://purl.org/dc/elements/1.1/" xmlns:cc="http://creativecommons.org/ns#" xmlns:rdf="http://www.w3.org/1999/02/22-rdf-syntax-ns#" xmlns:svg="http://www.w3.org/2000/svg" xmlns:sodipodi="http://sodipodi.sourceforge.net/DTD/sodipodi-0.dtd" xmlns:inkscape="http://www.inkscape.org/namespaces/inkscape" inkscape:version="0.48.2 r9819" sodipodi:docname="New document 1"
	 xmlns="http://www.w3.org/2000/svg" xmlns:xlink="http://www.w3.org/1999/xlink" x="0px" y="0px" width="744.094px"
	 height="1052.363px" viewBox="0 0 744.094 1052.363" enable-background="new 0 0 744.094 1052.363" xml:space="preserve">
<sodipodi:namedview  id="base" inkscape:zoom="0.7" inkscape:cx="488.97602" inkscape:cy="543.63988" pagecolor="#ffffff" showgrid="false" bordercolor="#666666" borderopacity="1.0" inkscape:window-maximized="1" inkscape:pageopacity="0.0" inkscape:pageshadow="2" inkscape:document-units="px" inkscape:current-layer="layer1" inkscape:window-width="1280" inkscape:window-height="1002" inkscape:window-x="1272" inkscape:window-y="-8">
	</sodipodi:namedview>
<g id="layer1" inkscape:label="Layer 1" inkscape:groupmode="layer">
</g>
<path fill="#FFFFFF" d="M275.58,339.295c0.857,2.191,0.891,4.617,0.091,7.279C279.412,345.82,281.487,341.112,275.58,339.295z"/>
<path fill="#FFFFFF" d="M268.832,339.295c0.856,2.191,0.891,4.617,0.089,7.279C272.665,345.82,274.735,341.112,268.832,339.295z"/>
<path fill="#FFFFFF" d="M262.068,339.295c0.854,2.191,0.891,4.617,0.087,7.279C265.901,345.82,267.973,341.112,262.068,339.295z"/>
<ellipse fill="#FFFFFF" cx="255.498" cy="342.935" rx="4.351" ry="4.084"/>
<rect x="288.559" y="301.569" fill="#FFFFFF" width="149.196" height="138.146"/>
<g id="g4294" transform="translate(-149.41311,-116.42857)">
	<g>
		<g>
			<path fill="#009489" d="M569.103,489.512c-0.656-0.76-1.041-1.654-0.408-2.449c1.205-1.521,2.077-3.304,2.322-5.603
				c0.361-3.374-1.127-6.14-3.66-8.156c-2.399-1.907-5.372-2.935-9.887-0.476c-1.491,0.814-3.165,2.224-4.465,4.195
				c-3.057,4.636-2.125,8.427,0.566,10.92c0.422,0.393,0.829,0.715,0.215,1.431c-0.859,1-1.628,2.172-2.128,3.667
				c-1.047,3.131-0.855,6.675,1.997,9.537c2.515,2.527,5.93,2.641,9.123,1.621c2.889-0.92,5.325-2.665,7.086-5.531
				C571.684,495.693,571.649,492.47,569.103,489.512z M557.469,479.314c0.841-1.37,1.708-1.92,2.614-2.339
				c1.763-0.812,3.272-0.668,4.136,0.19c1.659,1.659,2.475,4.223,0.996,6.486c-2.253,3.454-5.106,2.507-7.08,1.047
				C556.379,483.404,556.29,481.231,557.469,479.314z M565.107,497.19c-1.393,1.549-2.96,3.561-6.276,2.049
				c-1.814-0.824-3.418-2.461-2.422-5.293c0.406-1.166,1.268-2.192,2.281-2.479c2.051-0.583,4.12-0.584,5.367,0.189
				C565.987,492.847,567.15,494.922,565.107,497.19z"/>
		</g>
	</g>
	<path id="path3053" inkscape:connector-curvature="0" sodipodi:nodetypes="cssssssssssssc" fill="#DDB10A" d="M544.098,478.962
		c0.859,1.929,2.006,3.667,4.09,2.942c2.076-0.718,4.328-1.9,2.581-6.438c-0.769-2-3.333-3.657-8.267-3.497
		c-4.438,0.144-7.535,4.073-10.499,7.818c-2.588,3.271-4.746,7.289-4.802,12.693c-0.055,4.954,2.36,9.048,6.579,10.946
		c4.139,1.857,9.128,1.18,13.79,0.92c2.34-0.131,3.737-1.597,3.466-3.957c-0.177-1.529-0.779-3.09-3.379-2.943l-4.894,0.277
		c-2.937,0.165-6.55,0.859-8.361-2.759c-1.591-3.18-0.32-6.408,1.244-9.016C537.91,482.192,540.72,478.472,544.098,478.962z"/>
	<g>
		<g>
			<path fill="#79AD36" d="M522.949,488.264c7.423-6.365,1.746-15.567-4.891-15.567h-12.541l0,0l-5.07,31.974h16.809
				C522.638,504.672,531.234,494.985,522.949,488.264z M511.921,478.836l4.625,0.09c0.984,0.02,1.687,0.767,2.309,1.691
				c0.854,1.267,0.509,2.116,0.089,2.757c-0.725,1.114-1.43,2.196-2.934,2.224l-5.157,0.089L511.921,478.836z M518.859,496.536
				c-0.739,0.991-1.511,2.247-2.492,2.224l-7.561-0.179l1.424-7.027l5.78-0.089c1.348-0.021,2.06,0.787,2.756,1.513
				C520.445,494.729,519.558,495.602,518.859,496.536z"/>
		</g>
	</g>
	<path id="path3013" inkscape:connector-curvature="0" sodipodi:nodetypes="ccsssccccsssc" fill="#5355A5" d="M503.317,479.597
		l1.779-6.581c-7.354-1.244-14.526-1.425-20.637,2.846c-6.608,4.62-11.472,11.841-7.023,21.881c2.298,5.187,8.998,8.442,17.61,6.227
		c7.148-1.838,6.556-8.909,7.383-14.499h-12.009l-0.533,5.648h4.179c0.201,2.401-0.373,4.27-3.466,4.047
		c-3.721-0.267-6.739-2.084-7.734-6.049c-1.285-5.105,0.945-8.233,3.557-10.586C491.523,477.936,497.488,478.245,503.317,479.597
		L503.317,479.597z"/>
	<path id="path2993-1" inkscape:connector-curvature="0" sodipodi:nodetypes="cccccccc" fill="#B90545" d="M482.518,472.849
		l-14.083,31.825h-8.683l-5.661-31.825h7.418l3.649,21.196l10.184-21.196H482.518z"/>
</g>
<g>
	<g>
		<path fill="#FFFFFF" d="M495.705,272.471c-0.549-6.188,1.418-12.55-9.947-14.917H241.376c-6.381,0.18-12.64,1.307-12.078,14.917
			l2.133,409.203c0.886,20.094,14.325,22.331,29.839,28.062c61.021,17.314,143.803,14.119,213.126,0
			c19.818-5.414,22.883-17.841,22.733-28.062L495.705,272.471z M315.597,576.168h-18.28v18.929c0.436,2.18,0.065,3.712-2.372,3.595
			h-17.668c-1.769,0.049-3.015-0.771-3.059-3.595v-18.929h-18.126c-3.444-0.052-3.548-0.967-3.595-3.17l-0.151-16.6
			c-0.072-2.044,0.395-3.778,3.748-3.823h18.126v-19.199c-0.023-2.344,0.676-2.967,3.059-2.983h17.668
			c1.823,0.307,2.26,1.536,2.372,2.983v19.199h18.28c2.823-0.091,4.792,0.754,4.744,3.823l0.15,16.6
			C320.334,575.035,319.201,576.423,315.597,576.168z M351.981,645.646h-16.119c-4.99,0-4.549-8.352,0-8.352h16.119
			C356.828,637.296,357.145,645.646,351.981,645.646z M254.151,484.421c-7.627-2.377-9.135-7.966-9.043-13.06V287.002
			c-0.553-8.574,2.906-11.931,9.043-11.807H468.9c7.234-0.471,12.125,1.475,11.807,8.792v184.864
			c0.37,7.701-0.943,14.423-11.807,15.572C398.446,490.439,327.423,493.435,254.151,484.421z M392.229,645.646h-16.118
			c-5.16,0-4.846-8.352,0-8.352h16.118C396.777,637.296,397.223,645.646,392.229,645.646z M410.103,588.162
			c-9.074,0-16.432-7.437-16.432-16.603c0-9.167,7.354-16.608,16.432-16.608c9.066,0,16.427,7.439,16.427,16.608
			C426.533,580.729,419.174,588.162,410.103,588.162z M425.824,684.443c-1.136,0-2.059-0.937-2.059-2.095s0.925-2.097,2.059-2.097
			c1.139,0,2.063,0.938,2.063,2.097C427.888,683.505,426.963,684.443,425.824,684.443z M425.824,668.998
			c-1.136,0-2.059-0.938-2.059-2.098c0-1.156,0.925-2.095,2.059-2.095c1.139,0,2.063,0.938,2.063,2.095
			C427.888,668.06,426.963,668.998,425.824,668.998z M425.824,653.674c-1.136,0-2.059-0.937-2.059-2.098
			c0-1.158,0.925-2.096,2.059-2.096c1.139,0,2.063,0.938,2.063,2.096C427.888,652.737,426.963,653.674,425.824,653.674z
			 M433.476,691.099c-1.138,0-2.058-0.937-2.058-2.098c0-1.158,0.922-2.098,2.058-2.098c1.137,0,2.058,0.939,2.058,2.098
			C435.533,690.162,434.612,691.099,433.476,691.099z M433.476,675.904c-1.138,0-2.058-0.938-2.058-2.098
			c0-1.156,0.922-2.099,2.058-2.099c1.137,0,2.058,0.94,2.058,2.099C435.533,674.964,434.612,675.904,433.476,675.904z
			 M433.476,660.706c-1.138,0-2.058-0.937-2.058-2.095s0.922-2.095,2.058-2.095c1.137,0,2.058,0.937,2.058,2.095
			S434.612,660.706,433.476,660.706z M433.476,644.847c-1.138,0-2.058-0.938-2.058-2.1c0-1.154,0.922-2.095,2.058-2.095
			c1.137,0,2.058,0.938,2.058,2.095C435.533,643.908,434.612,644.847,433.476,644.847z M441.211,697.505
			c-1.137,0-2.06-0.938-2.06-2.097c0-1.161,0.925-2.099,2.06-2.099c1.138,0,2.059,0.938,2.059,2.099
			C443.27,696.566,442.349,697.505,441.211,697.505z M441.211,682.186c-1.137,0-2.06-0.939-2.06-2.1c0-1.159,0.925-2.1,2.06-2.1
			c1.138,0,2.059,0.94,2.059,2.1C443.27,681.246,442.349,682.186,441.211,682.186z M441.211,666.86c-1.137,0-2.06-0.937-2.06-2.095
			s0.925-2.098,2.06-2.098c1.138,0,2.059,0.939,2.059,2.098S442.349,666.86,441.211,666.86z M441.211,651.539
			c-1.137,0-2.06-0.937-2.06-2.096c0-1.156,0.925-2.098,2.06-2.098c1.138,0,2.059,0.938,2.059,2.098
			C443.27,650.603,442.349,651.539,441.211,651.539z M448.746,688.84c-1.138,0-2.058-0.938-2.058-2.098
			c0-1.156,0.922-2.096,2.058-2.096c1.138,0,2.061,0.938,2.061,2.096S449.884,688.84,448.746,688.84z M448.746,673.392
			c-1.138,0-2.058-0.938-2.058-2.098c0-1.153,0.922-2.095,2.058-2.095c1.138,0,2.061,0.94,2.061,2.095
			C450.807,672.453,449.884,673.392,448.746,673.392z M448.746,657.945c-1.138,0-2.058-0.938-2.058-2.098
			c0-1.155,0.922-2.097,2.058-2.097c1.138,0,2.061,0.94,2.061,2.097C450.807,657.007,449.884,657.945,448.746,657.945z
			 M448.746,642.499c-1.138,0-2.058-0.94-2.058-2.099c0-1.157,0.922-2.094,2.058-2.094c1.138,0,2.061,0.937,2.061,2.094
			C450.807,641.559,449.884,642.499,448.746,642.499z M456.405,695.12c-1.138,0-2.058-0.94-2.058-2.098c0-1.162,0.922-2.1,2.058-2.1
			c1.138,0,2.062,0.938,2.062,2.1C458.467,694.18,457.543,695.12,456.405,695.12z M456.405,679.672
			c-1.138,0-2.058-0.938-2.058-2.098c0-1.158,0.922-2.097,2.058-2.097c1.138,0,2.062,0.937,2.062,2.097
			C458.467,678.733,457.543,679.672,456.405,679.672z M456.405,664.224c-1.138,0-2.058-0.935-2.058-2.097
			c0-1.156,0.922-2.096,2.058-2.096c1.138,0,2.062,0.938,2.062,2.096C458.467,663.287,457.543,664.224,456.405,664.224z
			 M456.405,648.901c-1.138,0-2.058-0.937-2.058-2.095c0-1.154,0.922-2.095,2.058-2.095c1.138,0,2.062,0.938,2.062,2.095
			S457.543,648.901,456.405,648.901z M463.816,685.824c-1.136,0-2.059-0.938-2.059-2.095c0-1.159,0.925-2.096,2.059-2.096
			c1.135,0,2.058,0.937,2.058,2.096C465.874,684.886,464.953,685.824,463.816,685.824z M463.816,670.252
			c-1.136,0-2.059-0.937-2.059-2.097c0-1.156,0.925-2.098,2.059-2.098c1.135,0,2.058,0.938,2.058,2.098
			C465.874,669.313,464.953,670.252,463.816,670.252z M463.816,655.183c-1.136,0-2.059-0.939-2.059-2.101
			c0-1.155,0.925-2.097,2.059-2.097c1.135,0,2.058,0.94,2.058,2.097C465.874,654.243,464.953,655.183,463.816,655.183z
			 M463.816,639.608c-1.136,0-2.059-0.937-2.059-2.094c0-1.16,0.925-2.097,2.059-2.097c1.135,0,2.058,0.937,2.058,2.097
			C465.874,638.672,464.953,639.608,463.816,639.608z M471.54,691.854c-1.14,0-2.06-0.94-2.06-2.099c0-1.161,0.922-2.098,2.06-2.098
			c1.136,0,2.06,0.937,2.06,2.098C473.6,690.914,472.678,691.854,471.54,691.854z M471.54,676.406c-1.14,0-2.06-0.936-2.06-2.097
			s0.922-2.096,2.06-2.096c1.136,0,2.06,0.935,2.06,2.096S472.678,676.406,471.54,676.406z M471.54,661.209
			c-1.14,0-2.06-0.938-2.06-2.094c0-1.16,0.922-2.102,2.06-2.102c1.136,0,2.06,0.939,2.06,2.102
			C473.603,660.271,472.678,661.209,471.54,661.209z M471.54,645.763c-1.14,0-2.06-0.938-2.06-2.095c0-1.159,0.922-2.098,2.06-2.098
			c1.136,0,2.06,0.938,2.06,2.098C473.6,644.824,472.678,645.763,471.54,645.763z M459.032,572.092
			c-9.073,0-16.427-7.436-16.427-16.608c0-9.17,7.354-16.605,16.427-16.605c9.072,0,16.432,7.438,16.432,16.605
			C475.46,564.656,468.104,572.092,459.032,572.092z M479.077,682.309c-1.14,0-2.062-0.936-2.062-2.095
			c0-1.156,0.925-2.097,2.062-2.097c1.136,0,2.059,0.938,2.059,2.097S480.213,682.309,479.077,682.309z M479.077,667.113
			c-1.14,0-2.062-0.939-2.062-2.098c0-1.161,0.925-2.098,2.062-2.098c1.136,0,2.059,0.937,2.059,2.098
			C481.136,666.174,480.213,667.113,479.077,667.113z M479.077,651.789c-1.14,0-2.062-0.935-2.062-2.093
			c0-1.159,0.925-2.096,2.062-2.096c1.136,0,2.059,0.937,2.059,2.096C481.136,650.854,480.213,651.789,479.077,651.789z"/>
	</g>
</g>
</svg>
