<?xml version="1.0" encoding="utf-8"?>
<!-- Generator: Adobe Illustrator 13.0.0, SVG Export Plug-In . SVG Version: 6.00 Build 14948)  -->
<!DOCTYPE svg PUBLIC "-//W3C//DTD SVG 1.1//EN" "http://www.w3.org/Graphics/SVG/1.1/DTD/svg11.dtd">
<svg version="1.1"
	 id="svg3874" xmlns:dc="http://purl.org/dc/elements/1.1/" xmlns:cc="http://creativecommons.org/ns#" xmlns:rdf="http://www.w3.org/1999/02/22-rdf-syntax-ns#" xmlns:svg="http://www.w3.org/2000/svg" xmlns:sodipodi="http://sodipodi.sourceforge.net/DTD/sodipodi-0.dtd" xmlns:inkscape="http://www.inkscape.org/namespaces/inkscape" inkscape:export-filename="C:\Users\ebento.QVGLOBAL\Desktop\vba8.png" sodipodi:docname="vba8.svg" inkscape:export-xdpi="11.839321" inkscape:export-ydpi="11.839321" inkscape:version="0.48.2 r9819"
	 xmlns="http://www.w3.org/2000/svg" xmlns:xlink="http://www.w3.org/1999/xlink" x="0px" y="0px" width="744.094px"
	 height="1052.363px" viewBox="0 0 744.094 1052.363" enable-background="new 0 0 744.094 1052.363" xml:space="preserve">
<sodipodi:namedview  id="base" inkscape:cy="521.74969" pagecolor="#ffffff" showgrid="false" bordercolor="#666666" borderopacity="1.0" inkscape:zoom="0.9899495" inkscape:cx="446.75774" inkscape:window-maximized="1" inkscape:pageopacity="0.0" inkscape:pageshadow="2" inkscape:document-units="px" inkscape:current-layer="layer1" inkscape:window-width="1600" inkscape:window-height="878" inkscape:window-x="-8" inkscape:window-y="-8">
	</sodipodi:namedview>
<g id="layer1" inkscape:groupmode="layer" inkscape:label="Layer 1">
	<g>
		<g>
			<path fill="#FFFFFF" d="M681.467,563.433c-0.465-44.271-5.613-88.671-13.27-132.698c-4.299-24.726-20.021-23.172-33.342-24.884
				c-26.435-3.396-58.979-11.862-88.744-30.854c-16.658-10.629-39.666-14.593-63.695-14.597l-275.111-0.043
				c-17.938-0.003-24.328,7.614-31.435,12.667c-25.673,18.257-57.491,30.773-93.549,35.148
				c-14.356,1.741-26.475,2.709-29.858,23.886c-10.284,64.374-15.479,129.2-15.924,194.407
				c-0.114,16.705,4.784,32.584,23.166,47.994c4.765,3.994,10.043,4.342,19.299,7.078c19.463,5.75,39.076,11.014,58.389,17.25
				c12.714,4.104,25.213,8.848,37.82,13.27c35.779,12.558,70.968,17.791,106.824,19.906c74.092,4.371,147.952,2.818,217.629-8.625
				c17.613-2.895,33.092-8.713,47.773-14.598c8.95-3.59,17.813-6.074,26.536-8.625c23.445-6.857,46.892-13.713,70.332-20.57
				c15.127-4.424,24.777-13.186,30.854-23.223C686.428,637.722,681.805,595.628,681.467,563.433z M128.916,562.521h-21.413
				c-2.144,0.061-3.654-0.937-3.708-4.357v-22.941h-21.97c-4.173-0.063-4.301-1.17-4.356-3.848l-0.186-20.115
				c-0.084-2.478,0.479-4.577,4.542-4.636h21.969v-23.267c-0.027-2.842,0.821-3.601,3.708-3.615h21.413
				c2.211,0.369,2.741,1.857,2.874,3.615v23.267h22.154c3.421-0.11,5.809,0.916,5.748,4.636l0.185,20.115
				c-0.191,2.473-1.565,4.158-5.933,3.848h-22.154v22.941C132.317,560.806,131.867,562.664,128.916,562.521z M163.436,657.072
				c-5.313,0-9.621-4.197-9.621-9.373s4.307-9.371,9.621-9.371s9.621,4.195,9.621,9.371S168.749,657.072,163.436,657.072z
				 M163.436,620.496c-5.313,0-9.621-4.197-9.621-9.373s4.307-9.371,9.621-9.371s9.621,4.195,9.621,9.371
				S168.749,620.496,163.436,620.496z M497.012,682.201c-92.237,19.354-185.933,17.979-279.336,0
				c-29.063-5.594-35.102-28.226-33.839-50.426l10.948-192.417c1.146-20.154,13.2-24.918,28.531-26.209
				c95.583-8.048,183.893-4.633,272.37-0.995c24.033,0.984,29.89,12.747,30.521,26.54l9.289,202.37
				C536.555,664.138,520.782,677.214,497.012,682.201z M573.024,422.288c4.209,0,7.622,3.178,7.622,7.097s-3.413,7.099-7.622,7.099
				c-4.212,0-7.625-3.18-7.625-7.099S568.813,422.288,573.024,422.288z M572.653,510.354c11.356,0,20.565,9.14,20.565,20.408
				c0,11.271-9.209,20.408-20.565,20.408c-11.359,0-20.568-9.137-20.568-20.408C552.084,519.49,561.293,510.354,572.653,510.354z
				 M551.877,599.912l66.719-16.107c1.64-0.396,3.265,0.56,3.646,2.14c0.381,1.575-0.629,3.168-2.269,3.563l-66.719,16.109
				c-1.637,0.395-3.262-0.562-3.643-2.14C549.229,601.896,550.241,600.308,551.877,599.912z M551.877,613.517l66.719-16.104
				c1.64-0.396,3.265,0.557,3.646,2.137c0.381,1.578-0.629,3.168-2.269,3.564l-66.719,16.104c-1.637,0.396-3.262-0.557-3.643-2.137
				C549.229,615.503,550.241,613.914,551.877,613.517z M619.973,644.398l-66.719,16.104c-1.637,0.396-3.262-0.557-3.643-2.137
				c-0.383-1.578,0.629-3.168,2.266-3.564l66.719-16.104c1.64-0.396,3.265,0.557,3.646,2.137
				C622.622,642.412,621.61,644.001,619.973,644.398z M619.973,631.025l-66.719,16.106c-1.637,0.396-3.262-0.559-3.643-2.137
				c-0.383-1.58,0.629-3.168,2.266-3.564l66.719-16.104c1.64-0.396,3.265,0.557,3.646,2.137
				C622.622,629.041,621.61,630.63,619.973,631.025z M619.973,616.716l-66.719,16.109c-1.637,0.395-3.262-0.562-3.643-2.142
				c-0.383-1.575,0.629-3.168,2.266-3.563l66.719-16.109c1.64-0.395,3.265,0.562,3.646,2.14
				C622.622,614.732,621.61,616.32,619.973,616.716z M633.033,530.428c-11.359,0-20.568-9.136-20.568-20.407
				c0-11.271,9.209-20.406,20.568-20.406c11.356,0,20.565,9.138,20.565,20.407C653.599,521.292,644.391,530.428,633.033,530.428z
				 M216.629,623.482H502.6V441.349H216.629V623.482z"/>
		</g>
	</g>
	<g id="g3863" transform="translate(2.1143044,210.49584)">
		<path id="path3831" inkscape:connector-curvature="0" sodipodi:nodetypes="cccccccsccc" fill="#312D2E" d="M491.429,287.936
			l-0.414,76.71H305.689V349.91l-8.763,14.733h-31.192l-42.163-76.71H352.26c10.788,0,19.936,2.95,19.912,12.326l9.301-12.326
			L491.429,287.936L491.429,287.936z"/>
		<path id="path4015-7" inkscape:connector-curvature="0" sodipodi:nodetypes="ccccccccccc" fill="#FFFFFF" d="M392.994,351.967
			l-0.293-12.207h-13.445l15.053-24.845l19.438,37.052h12.568l-0.584-11.33l-23.679-40.261h-15.489l-30.105,51.591H392.994
			L392.994,351.967z"/>
		<path id="path4021-4" inkscape:connector-curvature="0" fill="#FFFFFF" d="M462.851,332.258h-27.768v8.906h27.768V332.258z
			 M435.083,311.364v8.762h27.768v-8.762H435.083z M422.515,324.56c0,0-3.727-2.715-3.727-4.822v-11.253
			c0-4.726,5.268-8.106,8.842-8.106h42.527c4.256,0,8.988,3.853,8.988,8.106v11.253c0,1.813-4.021,4.822-4.021,4.822
			s4.021,3.316,4.021,5.992v11.545c0,4.688-4.306,9.869-8.988,9.869H427.63c-4.055,0-8.842-5.816-8.842-9.869v-11.545
			C418.789,328.269,422.515,324.56,422.515,324.56z"/>
		<path id="path4015-8-0" inkscape:connector-curvature="0" sodipodi:nodetypes="ccccccccccc" fill="#FFFFFF" d="M281.338,300.375
			v11.763h-13.591l15.053,25.137l19.438-36.897h12.727v11.763l-24.418,39.829h-15.492l-30.105-51.591L281.338,300.375
			L281.338,300.375z"/>
		<path id="path3995-1-9" inkscape:connector-curvature="0" sodipodi:nodetypes="ssccsssccsscsccsss" fill="#FFFFFF" d="
			M350.194,332.603c5.705,0,5.467,8.76,0,8.76h-21.443v-8.76H350.194z M350.194,311.144c5.705,0,5.467,8.76,0,8.76h-21.443v-8.76
			H350.194z M314.964,300.375v51.591h42.369c7.2,0,14.661-5.715,14.637-12.549c-0.02-6.369-4.452-13.793-17.217-14.945
			c11.597-1.838,14.029-6.93,14.254-12.061c0.31-7.003-5.201-12.036-13.327-12.036H314.964L314.964,300.375z"/>
	</g>
</g>
</svg>
